<svg width="161" height="24" viewBox="0 0 161 24" fill="none" xmlns="http://www.w3.org/2000/svg">
<path d="M0.329102 18.6562H4.15234V5.10645H0.109375V2.7627H10.627C11.6621 2.7627 12.585 2.77246 13.3955 2.79199C14.2158 2.81152 14.9336 2.83594 15.5488 2.86523C16.1738 2.89453 16.7158 2.93359 17.1748 2.98242C17.6338 3.03125 18.0293 3.08496 18.3613 3.14355C19.1621 3.29004 19.8408 3.5 20.3975 3.77344C20.9639 4.04688 21.4229 4.37402 21.7744 4.75488C22.126 5.13574 22.3799 5.56543 22.5361 6.04395C22.7021 6.5127 22.7852 7.02051 22.7852 7.56738C22.7852 7.95801 22.7021 8.3584 22.5361 8.76855C22.3701 9.16895 22.1113 9.55469 21.7598 9.92578C21.418 10.2871 20.9834 10.6191 20.4561 10.9219C19.9385 11.2246 19.3281 11.4688 18.625 11.6543C19.3379 11.7422 19.9727 11.918 20.5293 12.1816C21.0957 12.4355 21.5693 12.7529 21.9502 13.1338C22.3408 13.5049 22.6338 13.9248 22.8291 14.3936C23.0342 14.8623 23.1367 15.3506 23.1367 15.8584C23.1367 16.4541 23.0537 17.0059 22.8877 17.5137C22.7217 18.0117 22.4482 18.4609 22.0674 18.8613C21.6963 19.2617 21.208 19.6084 20.6025 19.9014C19.9971 20.1846 19.2549 20.4092 18.376 20.5752C17.4287 20.751 16.3398 20.8682 15.1094 20.9268C13.8887 20.9756 12.4775 21 10.876 21H0.329102V18.6562ZM10.876 22.0254C12.4287 22.0254 13.8545 22.0059 15.1533 21.9668C16.4619 21.9375 17.6045 21.8252 18.5811 21.6299C19.6748 21.415 20.583 21.1074 21.3057 20.707C22.0283 20.2969 22.5996 19.833 23.0195 19.3154C23.4492 18.7979 23.7471 18.2363 23.9131 17.6309C24.0889 17.0254 24.1768 16.415 24.1768 15.7998C24.1768 15.3701 24.1133 14.9502 23.9863 14.54C23.8594 14.1201 23.6641 13.7295 23.4004 13.3682C23.1367 13.0068 22.7998 12.6797 22.3896 12.3867C21.9795 12.084 21.4912 11.835 20.9248 11.6396C21.9307 11.1416 22.668 10.5557 23.1367 9.88184C23.6055 9.19824 23.8398 8.42676 23.8398 7.56738C23.8398 6.71777 23.6104 5.91211 23.1514 5.15039C22.6924 4.37891 21.9404 3.72949 20.8955 3.20215C21.4814 3.34863 21.9941 3.56348 22.4336 3.84668C22.873 4.12012 23.2393 4.44238 23.5322 4.81348C23.835 5.18457 24.0596 5.59473 24.2061 6.04395C24.3525 6.49316 24.4258 6.96191 24.4258 7.4502C24.4258 8.33887 24.2451 9.11523 23.8838 9.7793C23.5225 10.4336 22.9414 11.0439 22.1406 11.6104C23.0781 12.1084 23.7471 12.7188 24.1475 13.4414C24.5576 14.1543 24.7627 14.9404 24.7627 15.7998C24.7627 16.5615 24.6553 17.2842 24.4404 17.9678C24.2256 18.6416 23.874 19.2568 23.3857 19.8135C22.9072 20.3604 22.2822 20.834 21.5107 21.2344C20.749 21.6445 19.8115 21.957 18.6982 22.1719C17.7119 22.3672 16.5791 22.4844 15.2998 22.5234C14.0303 22.5625 12.5557 22.582 10.876 22.582H1.2666V22.0254H10.876ZM12.9268 10.8193C14.1279 10.8193 15.1191 10.7607 15.9004 10.6436C16.6914 10.5264 17.3213 10.3457 17.79 10.1016C18.2588 9.84766 18.5859 9.53516 18.7715 9.16406C18.9668 8.7832 19.0645 8.3291 19.0645 7.80176C19.0645 7.27441 18.8984 6.80078 18.5664 6.38086C18.2344 5.96094 17.7021 5.63867 16.9697 5.41406C16.4717 5.26758 15.8955 5.17969 15.2412 5.15039C14.5869 5.12109 13.8154 5.10645 12.9268 5.10645H7.49219V10.8193H12.9268ZM8.54688 6.13184H12.9268C13.6689 6.13184 14.3086 6.15137 14.8457 6.19043C15.3828 6.21973 15.8418 6.27832 16.2227 6.36621C16.6035 6.4541 16.9258 6.57129 17.1895 6.71777C17.4531 6.85449 17.6875 7.03027 17.8926 7.24512C17.6973 7.15723 17.4629 7.0791 17.1895 7.01074C16.9258 6.94238 16.5986 6.88379 16.208 6.83496C15.8174 6.78613 15.3535 6.75195 14.8164 6.73242C14.2891 6.70312 13.6592 6.68848 12.9268 6.68848H9.13281V9.94043H8.54688V6.13184ZM0.988281 6.13184H3.53711V6.71777H0.988281V6.13184ZM13.2051 18.6562C14.2109 18.6562 15.0752 18.6318 15.7979 18.583C16.5205 18.5244 17.1455 18.3975 17.6729 18.2021C18.0049 18.0752 18.2783 17.9238 18.4932 17.748C18.7178 17.5723 18.8936 17.3818 19.0205 17.1768C19.1475 16.9619 19.2354 16.7324 19.2842 16.4883C19.333 16.2441 19.3574 15.9902 19.3574 15.7266C19.3574 15.082 19.1572 14.5254 18.7568 14.0566C18.3662 13.5781 17.7559 13.2168 16.9258 12.9727C16.418 12.8262 15.8369 12.7383 15.1826 12.709C14.5283 12.6699 13.7861 12.6504 12.9561 12.6504H7.49219V18.6562H13.2051ZM8.54688 13.6758H12.9268C13.6689 13.6758 14.3232 13.7002 14.8896 13.749C15.4561 13.7979 15.9443 13.876 16.3545 13.9834C16.7744 14.0811 17.1309 14.208 17.4238 14.3643C17.7168 14.5107 17.9658 14.6914 18.1709 14.9062C17.917 14.7891 17.6436 14.6914 17.3506 14.6133C17.0674 14.5254 16.7256 14.4521 16.3252 14.3936C15.9248 14.335 15.4512 14.2959 14.9043 14.2764C14.3574 14.2471 13.6982 14.2324 12.9268 14.2324H9.13281V17.7773H8.54688V13.6758ZM28.3076 13.9834C28.3076 13.0752 28.498 12.1719 28.8789 11.2734C29.2598 10.375 29.8213 9.56934 30.5635 8.85645C31.3154 8.13379 32.2432 7.54785 33.3467 7.09863C34.4502 6.64941 35.7197 6.4248 37.1553 6.4248C37.6143 6.4248 38.1025 6.45898 38.6201 6.52734C39.1475 6.5957 39.6699 6.70801 40.1875 6.86426C40.7148 7.02051 41.2275 7.23047 41.7256 7.49414C42.2236 7.74805 42.6777 8.06055 43.0879 8.43164V6.86426H49.3867V9.35449H46.1641V18.8027H49.3867V21H43.0879V19.0957C42.707 19.4766 42.2725 19.8135 41.7842 20.1064C41.3057 20.3994 40.793 20.6436 40.2461 20.8389C39.709 21.0342 39.1475 21.1807 38.5615 21.2783C37.9854 21.3857 37.4092 21.4395 36.833 21.4395C35.4268 21.4395 34.1914 21.2393 33.127 20.8389C32.0625 20.4385 31.1738 19.9014 30.4609 19.2275C29.748 18.5439 29.2109 17.7529 28.8496 16.8545C28.4883 15.9463 28.3076 14.9893 28.3076 13.9834ZM47.2188 10.3799H50.4414V7.97754H51.0273V10.9365H47.8047V17.9238H47.2188V10.3799ZM31.4863 13.8662C31.4863 14.6768 31.6279 15.4092 31.9111 16.0635C32.2041 16.7178 32.5996 17.2744 33.0977 17.7334C33.5957 18.1924 34.1865 18.5488 34.8701 18.8027C35.5537 19.0566 36.291 19.1836 37.082 19.1836C37.541 19.1836 38.0049 19.1396 38.4736 19.0518C38.9521 18.9541 39.4111 18.8125 39.8506 18.627C40.2998 18.4316 40.7197 18.1924 41.1104 17.9092C41.5107 17.6162 41.8525 17.2744 42.1357 16.8838C42.4287 16.4834 42.6582 16.0293 42.8242 15.5215C43 15.0137 43.0879 14.4473 43.0879 13.8223C43.0879 13.1289 42.9268 12.4746 42.6045 11.8594C42.2822 11.2344 41.8477 10.6875 41.3008 10.2188C40.7637 9.75 40.1338 9.37891 39.4111 9.10547C38.6885 8.83203 37.9268 8.69531 37.126 8.69531C36.3252 8.69531 35.5781 8.81738 34.8848 9.06152C34.2012 9.30566 33.6055 9.65234 33.0977 10.1016C32.5996 10.5508 32.2041 11.0977 31.9111 11.7422C31.6279 12.377 31.4863 13.085 31.4863 13.8662ZM32.4971 13.9395C32.4971 13.3242 32.6094 12.7627 32.834 12.2549C33.0684 11.7373 33.3906 11.293 33.8008 10.9219C34.2109 10.541 34.6992 10.248 35.2656 10.043C35.832 9.82812 36.4521 9.7207 37.126 9.7207C37.6338 9.7207 38.0928 9.7793 38.5029 9.89648C38.9131 10.0039 39.2695 10.1406 39.5723 10.3066C39.875 10.4629 40.124 10.6289 40.3193 10.8047C40.5146 10.9707 40.6514 11.1172 40.7295 11.2441C40.2021 10.9512 39.6602 10.7168 39.1035 10.541C38.5469 10.3652 37.8877 10.2773 37.126 10.2773C36.5107 10.2773 35.9541 10.3799 35.4561 10.585C34.9678 10.7803 34.5479 11.0488 34.1963 11.3906C33.8447 11.7324 33.5713 12.1279 33.376 12.5771C33.1904 13.0264 33.0977 13.5 33.0977 13.998C33.0977 14.4668 33.1514 14.9062 33.2588 15.3164C33.3662 15.7266 33.5371 16.1074 33.7715 16.459C34.0156 16.8008 34.3281 17.1182 34.709 17.4111C35.0996 17.6943 35.5684 17.9434 36.1152 18.1582C35.5 18.0508 34.9629 17.8701 34.5039 17.6162C34.0547 17.3525 33.6787 17.0352 33.376 16.6641C33.083 16.293 32.8633 15.8779 32.7168 15.4189C32.5703 14.9502 32.4971 14.457 32.4971 13.9395ZM50.4414 22.0254V19.623H51.0273V22.582H43.9668V22.0254H50.4414ZM30.1973 20.3701C30.5977 20.6924 31.0518 20.9805 31.5596 21.2344C32.0674 21.498 32.6094 21.7178 33.1855 21.8936C33.7617 22.0791 34.3574 22.2207 34.9727 22.3184C35.5977 22.416 36.2227 22.4648 36.8477 22.4648C37.9316 22.4648 38.9424 22.3281 39.8799 22.0547C40.8271 21.791 41.667 21.4199 42.3994 20.9414V21.6152C41.667 22.0547 40.8174 22.3965 39.8506 22.6406C38.8936 22.8945 37.8975 23.0215 36.8623 23.0215C36.1494 23.0215 35.4512 22.9629 34.7676 22.8457C34.084 22.7383 33.4492 22.5723 32.8633 22.3477C32.2773 22.123 31.7549 21.8447 31.2959 21.5127C30.8369 21.1807 30.4707 20.7998 30.1973 20.3701ZM54.9971 18.8027H58.2197V9.35449H54.9971V6.86426H61.3691V9.31055C61.6719 8.91992 62.0332 8.54883 62.4531 8.19727C62.8828 7.8457 63.3662 7.53809 63.9033 7.27441C64.4404 7.01074 65.0264 6.80566 65.6611 6.65918C66.2959 6.50293 66.9746 6.4248 67.6973 6.4248C67.9121 6.4248 68.1807 6.43457 68.5029 6.4541C68.8252 6.46387 69.1328 6.49316 69.4258 6.54199V9.41309C69.084 9.33496 68.7471 9.28125 68.415 9.25195C68.083 9.22266 67.7607 9.20801 67.4482 9.20801C66.667 9.20801 65.9248 9.33496 65.2217 9.58887C64.5283 9.83301 63.9082 10.1943 63.3613 10.6729C62.8145 11.1416 62.3652 11.7178 62.0137 12.4014C61.6621 13.085 61.4473 13.8662 61.3691 14.7451V18.8027H66.6426V21H54.9971V18.8027ZM62.3945 16.0635C62.3945 15.1455 62.5117 14.3252 62.7461 13.6025C62.9805 12.8799 63.3125 12.2695 63.7422 11.7715C64.1816 11.2734 64.7139 10.8926 65.3389 10.6289C65.9639 10.3652 66.667 10.2334 67.4482 10.2334C67.6143 10.2334 67.8242 10.248 68.0781 10.2773C68.332 10.2969 68.5957 10.3311 68.8691 10.3799C69.1523 10.4287 69.4355 10.4922 69.7188 10.5703C70.002 10.6387 70.2559 10.7217 70.4805 10.8193V7.3623H71.0664V11.5518C70.793 11.4346 70.4951 11.332 70.1729 11.2441C69.8604 11.1465 69.5381 11.0635 69.2061 10.9951C68.8838 10.9268 68.5713 10.8779 68.2686 10.8486C67.9658 10.8096 67.6924 10.79 67.4482 10.79C66.7354 10.79 66.1006 10.9072 65.5439 11.1416C64.9971 11.376 64.5332 11.7129 64.1523 12.1523C63.7715 12.5918 63.4785 13.1289 63.2734 13.7637C63.0781 14.3984 62.9805 15.1162 62.9805 15.917V17.9238H62.3945V16.0635ZM55.876 10.3799H57.6045V10.9365H55.876V10.3799ZM67.6973 22.0254V19.623H68.2832V22.582H55.876V22.0254H67.6973ZM74.582 18.8027H77.0723V2.90918H73.8496V0.56543H80.2217V9.07617C80.9346 8.34375 81.7988 7.76758 82.8145 7.34766C83.8398 6.92773 84.9531 6.71777 86.1543 6.71777C87.5312 6.71777 88.7471 6.92285 89.8018 7.33301C90.8662 7.7334 91.7598 8.27051 92.4824 8.94434C93.2148 9.6084 93.7666 10.3701 94.1377 11.2295C94.5186 12.0889 94.709 12.9775 94.709 13.8955C94.709 15.0088 94.5088 16.0293 94.1084 16.957C93.7178 17.875 93.1514 18.666 92.4092 19.3301C91.6768 19.9941 90.7881 20.5117 89.7432 20.8828C88.708 21.2539 87.5459 21.4395 86.2568 21.4395C85.0166 21.4395 83.8789 21.2539 82.8438 20.8828C81.8086 20.502 80.9346 19.9453 80.2217 19.2129V21H74.582V18.8027ZM81.291 1.3125H81.877V6.64453L81.291 6.9375V1.3125ZM74.7285 3.93457H76.457V4.49121H74.7285V3.93457ZM81.2764 22.0254V21.2637C81.6279 21.4492 82.0088 21.6152 82.4189 21.7617C82.8291 21.9082 83.249 22.0303 83.6787 22.1279C84.1182 22.2354 84.5576 22.3184 84.9971 22.377C85.4365 22.4355 85.8564 22.4648 86.2568 22.4648C87.6338 22.4648 88.9033 22.2695 90.0654 21.8789C91.2275 21.4883 92.2285 20.9268 93.0684 20.1943C93.918 19.4619 94.5771 18.5684 95.0459 17.5137C95.5244 16.4492 95.7637 15.2432 95.7637 13.8955C95.7637 13.2217 95.6855 12.5967 95.5293 12.0205C95.3828 11.4443 95.1826 10.917 94.9287 10.4385C94.6846 9.9502 94.4014 9.51074 94.0791 9.12012C93.7568 8.72949 93.4248 8.37793 93.083 8.06543C93.6104 8.33887 94.0742 8.68555 94.4746 9.10547C94.8848 9.52539 95.2266 9.99414 95.5 10.5117C95.7832 11.0195 95.998 11.5664 96.1445 12.1523C96.291 12.7285 96.3643 13.3096 96.3643 13.8955C96.3643 15.292 96.1201 16.5566 95.6318 17.6895C95.1436 18.8125 94.4551 19.7695 93.5664 20.5605C92.6875 21.3516 91.623 21.957 90.373 22.377C89.1328 22.8066 87.7559 23.0215 86.2422 23.0215C85.9102 23.0215 85.5488 22.9971 85.1582 22.9482C84.7676 22.9092 84.3721 22.8457 83.9717 22.7578C83.5713 22.6699 83.1807 22.5625 82.7998 22.4355C82.4287 22.3184 82.0918 22.1816 81.7891 22.0254V22.582H75.4609V22.0254H81.2764ZM80.2217 14.1885C80.2217 15.0869 80.3975 15.8535 80.749 16.4883C81.1006 17.1133 81.5596 17.626 82.126 18.0264C82.7021 18.4268 83.3564 18.7197 84.0889 18.9053C84.8213 19.0908 85.5684 19.1836 86.3301 19.1836C87.1211 19.1836 87.834 19.0615 88.4688 18.8174C89.1133 18.5732 89.6602 18.2266 90.1094 17.7773C90.5684 17.3281 90.9199 16.7861 91.1641 16.1514C91.4082 15.5068 91.5303 14.7939 91.5303 14.0127C91.5303 13.2705 91.3838 12.5918 91.0908 11.9766C90.8076 11.3516 90.417 10.8193 89.9189 10.3799C89.4209 9.94043 88.8301 9.59863 88.1465 9.35449C87.4727 9.11035 86.7451 8.98828 85.9639 8.98828C85.1533 8.98828 84.3965 9.11035 83.6934 9.35449C83 9.59863 82.3945 9.9502 81.877 10.4092C81.3691 10.8584 80.9639 11.4053 80.6611 12.0498C80.3682 12.6846 80.2217 13.3975 80.2217 14.1885ZM81.2764 14.1885C81.2764 13.6025 81.3838 13.0557 81.5986 12.5479C81.8232 12.04 82.1357 11.6006 82.5361 11.2295C82.9463 10.8486 83.4395 10.5508 84.0156 10.3359C84.5918 10.1211 85.2412 10.0137 85.9639 10.0137C86.7354 10.0137 87.4287 10.126 88.0439 10.3506C88.6592 10.5654 89.1523 10.9219 89.5234 11.4199C88.8789 11.1074 88.2832 10.8877 87.7363 10.7607C87.1895 10.6338 86.5986 10.5703 85.9639 10.5703C85.3291 10.5703 84.7578 10.668 84.25 10.8633C83.752 11.0488 83.3271 11.3076 82.9756 11.6396C82.624 11.9717 82.3555 12.3574 82.1699 12.7969C81.9844 13.2266 81.8916 13.6904 81.8916 14.1885C81.8916 14.9795 82.1162 15.6973 82.5654 16.3418C83.0146 16.9863 83.7422 17.543 84.748 18.0117C84.2109 17.9434 83.7275 17.7969 83.2979 17.5723C82.8682 17.3379 82.502 17.0498 82.1992 16.708C81.9062 16.3564 81.6768 15.9658 81.5107 15.5361C81.3545 15.1064 81.2764 14.6572 81.2764 14.1885ZM99.499 14.2031C99.499 13.168 99.6895 12.1816 100.07 11.2441C100.451 10.3066 101.022 9.48145 101.784 8.76855C102.546 8.05566 103.493 7.48926 104.626 7.06934C105.759 6.63965 107.072 6.4248 108.566 6.4248C109.973 6.4248 111.228 6.61523 112.331 6.99609C113.435 7.36719 114.372 7.90918 115.144 8.62207C115.915 9.33496 116.501 10.209 116.901 11.2441C117.312 12.2695 117.517 13.4414 117.517 14.7598H102.707C102.795 15.4629 103.02 16.0879 103.381 16.6348C103.752 17.1816 104.221 17.6455 104.787 18.0264C105.354 18.3975 105.993 18.6807 106.706 18.876C107.429 19.0713 108.181 19.1689 108.962 19.1689C109.597 19.1689 110.241 19.1201 110.896 19.0225C111.56 18.915 112.185 18.7734 112.771 18.5977C113.356 18.4219 113.879 18.2266 114.338 18.0117C114.797 17.7871 115.148 17.5576 115.393 17.3232H115.949L117.326 18.8174C116.32 19.6768 115.095 20.3311 113.649 20.7803C112.214 21.2197 110.627 21.4395 108.889 21.4395C107.375 21.4395 106.032 21.2539 104.86 20.8828C103.698 20.5117 102.717 19.999 101.916 19.3447C101.125 18.6904 100.524 17.9238 100.114 17.0449C99.7041 16.166 99.499 15.2188 99.499 14.2031ZM118.513 15.7852C118.532 15.6387 118.547 15.4824 118.557 15.3164C118.566 15.1406 118.571 14.9551 118.571 14.7598C118.571 13.9297 118.483 13.1387 118.308 12.3867C118.142 11.625 117.893 10.9219 117.561 10.2773C117.238 9.62305 116.838 9.02734 116.359 8.49023C115.881 7.95312 115.339 7.49414 114.733 7.11328C115.378 7.36719 115.969 7.71875 116.506 8.16797C117.053 8.60742 117.521 9.14453 117.912 9.7793C118.303 10.4141 118.605 11.1465 118.82 11.9766C119.045 12.8066 119.157 13.7344 119.157 14.7598C119.157 14.8379 119.152 14.9355 119.143 15.0527C119.143 15.1699 119.138 15.3018 119.128 15.4482C119.118 15.5947 119.104 15.7461 119.084 15.9023C119.074 16.0488 119.06 16.1953 119.04 16.3418H105.197C105.383 16.6543 105.725 16.9766 106.223 17.3086C106.721 17.6309 107.365 17.9043 108.156 18.1289C107.668 18.1289 107.209 18.0703 106.779 17.9531C106.359 17.8359 105.974 17.6748 105.622 17.4697C105.28 17.2646 104.978 17.0205 104.714 16.7373C104.46 16.4443 104.26 16.127 104.113 15.7852H118.513ZM114.133 12.9287C113.977 12.2549 113.732 11.6543 113.4 11.127C113.078 10.5996 112.678 10.1602 112.199 9.80859C111.721 9.44727 111.174 9.17383 110.559 8.98828C109.943 8.79297 109.27 8.69531 108.537 8.69531C107.746 8.69531 107.023 8.80273 106.369 9.01758C105.725 9.22266 105.158 9.51562 104.67 9.89648C104.182 10.2676 103.776 10.7119 103.454 11.2295C103.142 11.7471 102.922 12.3135 102.795 12.9287H114.133ZM104.128 12.2988C104.489 11.498 105.056 10.8682 105.827 10.4092C106.608 9.9502 107.512 9.7207 108.537 9.7207C108.957 9.7207 109.362 9.75488 109.753 9.82324C110.153 9.8916 110.52 9.99902 110.852 10.1455C111.193 10.2822 111.491 10.4531 111.745 10.6582C111.999 10.8633 112.199 11.0977 112.346 11.3613C111.789 10.9902 111.193 10.7168 110.559 10.541C109.924 10.3652 109.24 10.2773 108.508 10.2773C107.658 10.2773 106.911 10.4531 106.267 10.8047C105.622 11.1562 105.134 11.6543 104.802 12.2988H104.128ZM101.271 20.3555C102.219 21.0293 103.317 21.5518 104.567 21.9229C105.827 22.2939 107.268 22.4795 108.889 22.4795C110.471 22.4795 111.95 22.2988 113.327 21.9375C114.714 21.5762 115.964 21.0244 117.077 20.2822L117.473 20.707C116.213 21.5566 114.885 22.1572 113.488 22.5088C112.102 22.8604 110.646 23.0361 109.123 23.0361C107.141 23.0361 105.495 22.7969 104.187 22.3184C102.888 21.8398 101.916 21.1855 101.271 20.3555ZM122.819 18.8027H126.042V9.35449H122.819V6.86426H129.191V9.31055C129.494 8.91992 129.855 8.54883 130.275 8.19727C130.705 7.8457 131.188 7.53809 131.726 7.27441C132.263 7.01074 132.849 6.80566 133.483 6.65918C134.118 6.50293 134.797 6.4248 135.52 6.4248C135.734 6.4248 136.003 6.43457 136.325 6.4541C136.647 6.46387 136.955 6.49316 137.248 6.54199V9.41309C136.906 9.33496 136.569 9.28125 136.237 9.25195C135.905 9.22266 135.583 9.20801 135.271 9.20801C134.489 9.20801 133.747 9.33496 133.044 9.58887C132.351 9.83301 131.73 10.1943 131.184 10.6729C130.637 11.1416 130.188 11.7178 129.836 12.4014C129.484 13.085 129.27 13.8662 129.191 14.7451V18.8027H134.465V21H122.819V18.8027ZM130.217 16.0635C130.217 15.1455 130.334 14.3252 130.568 13.6025C130.803 12.8799 131.135 12.2695 131.564 11.7715C132.004 11.2734 132.536 10.8926 133.161 10.6289C133.786 10.3652 134.489 10.2334 135.271 10.2334C135.437 10.2334 135.646 10.248 135.9 10.2773C136.154 10.2969 136.418 10.3311 136.691 10.3799C136.975 10.4287 137.258 10.4922 137.541 10.5703C137.824 10.6387 138.078 10.7217 138.303 10.8193V7.3623H138.889V11.5518C138.615 11.4346 138.317 11.332 137.995 11.2441C137.683 11.1465 137.36 11.0635 137.028 10.9951C136.706 10.9268 136.394 10.8779 136.091 10.8486C135.788 10.8096 135.515 10.79 135.271 10.79C134.558 10.79 133.923 10.9072 133.366 11.1416C132.819 11.376 132.355 11.7129 131.975 12.1523C131.594 12.5918 131.301 13.1289 131.096 13.7637C130.9 14.3984 130.803 15.1162 130.803 15.917V17.9238H130.217V16.0635ZM123.698 10.3799H125.427V10.9365H123.698V10.3799ZM135.52 22.0254V19.623H136.105V22.582H123.698V22.0254H135.52ZM141.965 18.876L154.299 9.04688H145.349V11.3174H142.214V6.86426H159.001V8.97363L146.74 18.8027H156.086V16.5615H159.235V21H141.965V18.876ZM160.056 9.61816V7.66992H160.642V9.89648L150.607 17.9238H149.699L160.056 9.61816ZM143.093 12.3281H146.403V10.0723H151.867L151.179 10.6289H146.989V12.8848H143.093V12.3281ZM160.29 22.0254V17.3818H160.876V22.582H142.844V22.0254H160.29Z" fill="black"/>
</svg>
