<svg width="211" height="54" viewBox="0 0 211 54" fill="none" xmlns="http://www.w3.org/2000/svg">
<path d="M2.3291 25.6562H6.15234V12.1064H2.10938V9.7627H12.627C13.6621 9.7627 14.585 9.77246 15.3955 9.79199C16.2158 9.81152 16.9336 9.83594 17.5488 9.86523C18.1738 9.89453 18.7158 9.93359 19.1748 9.98242C19.6338 10.0312 20.0293 10.085 20.3613 10.1436C21.1621 10.29 21.8408 10.5 22.3975 10.7734C22.9639 11.0469 23.4229 11.374 23.7744 11.7549C24.126 12.1357 24.3799 12.5654 24.5361 13.0439C24.7021 13.5127 24.7852 14.0205 24.7852 14.5674C24.7852 14.958 24.7021 15.3584 24.5361 15.7686C24.3701 16.1689 24.1113 16.5547 23.7598 16.9258C23.418 17.2871 22.9834 17.6191 22.4561 17.9219C21.9385 18.2246 21.3281 18.4688 20.625 18.6543C21.3379 18.7422 21.9727 18.918 22.5293 19.1816C23.0957 19.4355 23.5693 19.7529 23.9502 20.1338C24.3408 20.5049 24.6338 20.9248 24.8291 21.3936C25.0342 21.8623 25.1367 22.3506 25.1367 22.8584C25.1367 23.4541 25.0537 24.0059 24.8877 24.5137C24.7217 25.0117 24.4482 25.4609 24.0674 25.8613C23.6963 26.2617 23.208 26.6084 22.6025 26.9014C21.9971 27.1846 21.2549 27.4092 20.376 27.5752C19.4287 27.751 18.3398 27.8682 17.1094 27.9268C15.8887 27.9756 14.4775 28 12.876 28H2.3291V25.6562ZM12.876 29.0254C14.4287 29.0254 15.8545 29.0059 17.1533 28.9668C18.4619 28.9375 19.6045 28.8252 20.5811 28.6299C21.6748 28.415 22.583 28.1074 23.3057 27.707C24.0283 27.2969 24.5996 26.833 25.0195 26.3154C25.4492 25.7979 25.7471 25.2363 25.9131 24.6309C26.0889 24.0254 26.1768 23.415 26.1768 22.7998C26.1768 22.3701 26.1133 21.9502 25.9863 21.54C25.8594 21.1201 25.6641 20.7295 25.4004 20.3682C25.1367 20.0068 24.7998 19.6797 24.3896 19.3867C23.9795 19.084 23.4912 18.835 22.9248 18.6396C23.9307 18.1416 24.668 17.5557 25.1367 16.8818C25.6055 16.1982 25.8398 15.4268 25.8398 14.5674C25.8398 13.7178 25.6104 12.9121 25.1514 12.1504C24.6924 11.3789 23.9404 10.7295 22.8955 10.2021C23.4814 10.3486 23.9941 10.5635 24.4336 10.8467C24.873 11.1201 25.2393 11.4424 25.5322 11.8135C25.835 12.1846 26.0596 12.5947 26.2061 13.0439C26.3525 13.4932 26.4258 13.9619 26.4258 14.4502C26.4258 15.3389 26.2451 16.1152 25.8838 16.7793C25.5225 17.4336 24.9414 18.0439 24.1406 18.6104C25.0781 19.1084 25.7471 19.7188 26.1475 20.4414C26.5576 21.1543 26.7627 21.9404 26.7627 22.7998C26.7627 23.5615 26.6553 24.2842 26.4404 24.9678C26.2256 25.6416 25.874 26.2568 25.3857 26.8135C24.9072 27.3604 24.2822 27.834 23.5107 28.2344C22.749 28.6445 21.8115 28.957 20.6982 29.1719C19.7119 29.3672 18.5791 29.4844 17.2998 29.5234C16.0303 29.5625 14.5557 29.582 12.876 29.582H3.2666V29.0254H12.876ZM14.9268 17.8193C16.1279 17.8193 17.1191 17.7607 17.9004 17.6436C18.6914 17.5264 19.3213 17.3457 19.79 17.1016C20.2588 16.8477 20.5859 16.5352 20.7715 16.1641C20.9668 15.7832 21.0645 15.3291 21.0645 14.8018C21.0645 14.2744 20.8984 13.8008 20.5664 13.3809C20.2344 12.9609 19.7021 12.6387 18.9697 12.4141C18.4717 12.2676 17.8955 12.1797 17.2412 12.1504C16.5869 12.1211 15.8154 12.1064 14.9268 12.1064H9.49219V17.8193H14.9268ZM10.5469 13.1318H14.9268C15.6689 13.1318 16.3086 13.1514 16.8457 13.1904C17.3828 13.2197 17.8418 13.2783 18.2227 13.3662C18.6035 13.4541 18.9258 13.5713 19.1895 13.7178C19.4531 13.8545 19.6875 14.0303 19.8926 14.2451C19.6973 14.1572 19.4629 14.0791 19.1895 14.0107C18.9258 13.9424 18.5986 13.8838 18.208 13.835C17.8174 13.7861 17.3535 13.752 16.8164 13.7324C16.2891 13.7031 15.6592 13.6885 14.9268 13.6885H11.1328V16.9404H10.5469V13.1318ZM2.98828 13.1318H5.53711V13.7178H2.98828V13.1318ZM15.2051 25.6562C16.2109 25.6562 17.0752 25.6318 17.7979 25.583C18.5205 25.5244 19.1455 25.3975 19.6729 25.2021C20.0049 25.0752 20.2783 24.9238 20.4932 24.748C20.7178 24.5723 20.8936 24.3818 21.0205 24.1768C21.1475 23.9619 21.2354 23.7324 21.2842 23.4883C21.333 23.2441 21.3574 22.9902 21.3574 22.7266C21.3574 22.082 21.1572 21.5254 20.7568 21.0566C20.3662 20.5781 19.7559 20.2168 18.9258 19.9727C18.418 19.8262 17.8369 19.7383 17.1826 19.709C16.5283 19.6699 15.7861 19.6504 14.9561 19.6504H9.49219V25.6562H15.2051ZM10.5469 20.6758H14.9268C15.6689 20.6758 16.3232 20.7002 16.8896 20.749C17.4561 20.7979 17.9443 20.876 18.3545 20.9834C18.7744 21.0811 19.1309 21.208 19.4238 21.3643C19.7168 21.5107 19.9658 21.6914 20.1709 21.9062C19.917 21.7891 19.6436 21.6914 19.3506 21.6133C19.0674 21.5254 18.7256 21.4521 18.3252 21.3936C17.9248 21.335 17.4512 21.2959 16.9043 21.2764C16.3574 21.2471 15.6982 21.2324 14.9268 21.2324H11.1328V24.7773H10.5469V20.6758ZM28.623 25.6562H31.7871L41.4258 9.7627H44.5898L54.0527 25.6562H57.8613V28H46.582V25.6562H50.127L48.0029 21.9209H37.7344L35.6689 25.6562H39.0527V28H28.623V25.6562ZM46.9189 10.5098L55.4004 24.7773H54.7266L46.2451 10.5098H46.9189ZM46.9482 20.0898L42.8027 12.8096L38.7598 20.0898H46.9482ZM43.0664 14.4795L43.418 15.124L41.0596 19.2109H40.3418L43.0664 14.4795ZM38.3057 22.9463H47.8711L48.1348 23.5029H38.7451L38.0566 24.7773H37.3096L38.3057 22.9463ZM58.9014 29.0254V26.4619H59.5166V29.582H47.2119V29.0254H58.9014ZM40.1074 29.0254V26.4619H40.6934V29.582H29.2676V29.0254H40.1074ZM61.8604 25.6562H65.6836V12.1064H61.6406V9.7627H73.6377C74.7607 9.7627 75.7715 9.78223 76.6699 9.82129C77.5781 9.86035 78.3984 9.94824 79.1309 10.085C79.9902 10.251 80.7178 10.4805 81.3135 10.7734C81.9189 11.0664 82.4121 11.4229 82.793 11.8428C83.1738 12.2529 83.4473 12.7217 83.6133 13.249C83.7891 13.7666 83.877 14.333 83.877 14.9482C83.877 16.0713 83.5254 17.0479 82.8223 17.8779C82.1191 18.708 81.0596 19.3428 79.6436 19.7822C79.4678 19.8408 79.2822 19.8945 79.0869 19.9434C78.9014 19.9824 78.7109 20.0264 78.5156 20.0752C79.0332 20.3486 79.5508 20.6953 80.0684 21.1152C80.5859 21.5352 81.0645 21.9941 81.5039 22.4922C81.9434 22.9902 82.3242 23.5127 82.6465 24.0596C82.9785 24.5967 83.2129 25.1289 83.3496 25.6562H86.3086V28H75.9668V25.6562H79.4531C79.2871 25.1289 79.0283 24.5869 78.6768 24.0303C78.3252 23.4736 77.9004 22.9512 77.4023 22.4629C76.9043 21.9746 76.3379 21.5498 75.7031 21.1885C75.0781 20.8271 74.4092 20.583 73.6963 20.4561H68.9795V25.6562H72.5537V28H61.8604V25.6562ZM80.7568 20.3389C81.4111 20.1436 81.9971 19.8701 82.5146 19.5186C83.0322 19.167 83.4668 18.7568 83.8184 18.2881C84.1797 17.8193 84.4531 17.3018 84.6387 16.7354C84.834 16.1689 84.9316 15.5781 84.9316 14.9629C84.9316 14.5332 84.8877 14.1182 84.7998 13.7178C84.7119 13.3174 84.5605 12.9365 84.3457 12.5752C84.1309 12.2041 83.8428 11.8477 83.4814 11.5059C83.1201 11.1641 82.6709 10.832 82.1338 10.5098C82.7393 10.7344 83.2568 11.0078 83.6865 11.3301C84.126 11.6426 84.4824 11.9941 84.7559 12.3848C85.0391 12.7754 85.2441 13.1904 85.3711 13.6299C85.5078 14.0596 85.5762 14.5039 85.5762 14.9629C85.5762 15.5293 85.498 16.0811 85.3418 16.6182C85.1953 17.1553 84.9658 17.668 84.6533 18.1562C84.3506 18.6348 83.96 19.0742 83.4814 19.4746C83.0029 19.875 82.4414 20.2168 81.7969 20.5C82.0898 20.7344 82.3779 21.0273 82.6611 21.3789C82.9541 21.7207 83.2275 22.0918 83.4814 22.4922C83.7354 22.8828 83.9648 23.2783 84.1699 23.6787C84.375 24.0693 84.5361 24.4307 84.6533 24.7627H83.9648C83.8184 24.3818 83.6328 23.9814 83.4082 23.5615C83.1934 23.1318 82.9443 22.7168 82.6611 22.3164C82.3877 21.916 82.0898 21.5449 81.7676 21.2031C81.4453 20.8516 81.1084 20.5635 80.7568 20.3389ZM74.2676 18.1123C75.4395 18.1123 76.4111 18.0488 77.1826 17.9219C77.9541 17.7852 78.5693 17.5898 79.0283 17.3359C79.4971 17.0723 79.8242 16.75 80.0098 16.3691C80.2051 15.9883 80.3027 15.5537 80.3027 15.0654C80.3027 14.46 80.0879 13.918 79.6582 13.4395C79.2285 12.9512 78.5449 12.5898 77.6074 12.3555C77.168 12.248 76.6699 12.1797 76.1133 12.1504C75.5566 12.1211 74.9414 12.1064 74.2676 12.1064H68.9795V18.1123H74.2676ZM70.0342 13.1318H74.2676C75.0684 13.1318 75.7373 13.1514 76.2744 13.1904C76.8115 13.2197 77.2656 13.2783 77.6367 13.3662C78.0078 13.4541 78.3154 13.5713 78.5596 13.7178C78.8037 13.8545 79.0283 14.0303 79.2334 14.2451C79.0381 14.1572 78.8037 14.0791 78.5303 14.0107C78.2666 13.9424 77.9395 13.8838 77.5488 13.835C77.1582 13.7861 76.6943 13.752 76.1572 13.7324C75.6299 13.7031 75 13.6885 74.2676 13.6885H70.6201V17.2334H70.0342V13.1318ZM62.4316 13.1318H64.7607V13.6885H62.4316V13.1318ZM70.0342 21.4814H71.8066C72.7441 21.4814 73.5742 21.5596 74.2969 21.7158C75.0293 21.8623 75.5615 22.1211 75.8936 22.4922C75.6201 22.4141 75.3467 22.3457 75.0732 22.2871C74.8096 22.2285 74.5068 22.1846 74.165 22.1553C73.833 22.1162 73.4424 22.0869 72.9932 22.0674C72.5537 22.0479 72.0215 22.0381 71.3965 22.0381H70.6201V24.7773H70.0342V21.4814ZM87.3633 29.0254V26.4766H87.9492V29.582H76.5967V29.0254H87.3633ZM73.6377 29.0254V26.4766H74.2236V29.582H62.7979V29.0254H73.6377ZM90.9521 25.6562H94.7754V12.1064H90.7324V9.7627H101.25C102.285 9.7627 103.208 9.77246 104.019 9.79199C104.839 9.81152 105.557 9.83594 106.172 9.86523C106.797 9.89453 107.339 9.93359 107.798 9.98242C108.257 10.0312 108.652 10.085 108.984 10.1436C109.785 10.29 110.464 10.5 111.021 10.7734C111.587 11.0469 112.046 11.374 112.397 11.7549C112.749 12.1357 113.003 12.5654 113.159 13.0439C113.325 13.5127 113.408 14.0205 113.408 14.5674C113.408 14.958 113.325 15.3584 113.159 15.7686C112.993 16.1689 112.734 16.5547 112.383 16.9258C112.041 17.2871 111.606 17.6191 111.079 17.9219C110.562 18.2246 109.951 18.4688 109.248 18.6543C109.961 18.7422 110.596 18.918 111.152 19.1816C111.719 19.4355 112.192 19.7529 112.573 20.1338C112.964 20.5049 113.257 20.9248 113.452 21.3936C113.657 21.8623 113.76 22.3506 113.76 22.8584C113.76 23.4541 113.677 24.0059 113.511 24.5137C113.345 25.0117 113.071 25.4609 112.69 25.8613C112.319 26.2617 111.831 26.6084 111.226 26.9014C110.62 27.1846 109.878 27.4092 108.999 27.5752C108.052 27.751 106.963 27.8682 105.732 27.9268C104.512 27.9756 103.101 28 101.499 28H90.9521V25.6562ZM101.499 29.0254C103.052 29.0254 104.478 29.0059 105.776 28.9668C107.085 28.9375 108.228 28.8252 109.204 28.6299C110.298 28.415 111.206 28.1074 111.929 27.707C112.651 27.2969 113.223 26.833 113.643 26.3154C114.072 25.7979 114.37 25.2363 114.536 24.6309C114.712 24.0254 114.8 23.415 114.8 22.7998C114.8 22.3701 114.736 21.9502 114.609 21.54C114.482 21.1201 114.287 20.7295 114.023 20.3682C113.76 20.0068 113.423 19.6797 113.013 19.3867C112.603 19.084 112.114 18.835 111.548 18.6396C112.554 18.1416 113.291 17.5557 113.76 16.8818C114.229 16.1982 114.463 15.4268 114.463 14.5674C114.463 13.7178 114.233 12.9121 113.774 12.1504C113.315 11.3789 112.563 10.7295 111.519 10.2021C112.104 10.3486 112.617 10.5635 113.057 10.8467C113.496 11.1201 113.862 11.4424 114.155 11.8135C114.458 12.1846 114.683 12.5947 114.829 13.0439C114.976 13.4932 115.049 13.9619 115.049 14.4502C115.049 15.3389 114.868 16.1152 114.507 16.7793C114.146 17.4336 113.564 18.0439 112.764 18.6104C113.701 19.1084 114.37 19.7188 114.771 20.4414C115.181 21.1543 115.386 21.9404 115.386 22.7998C115.386 23.5615 115.278 24.2842 115.063 24.9678C114.849 25.6416 114.497 26.2568 114.009 26.8135C113.53 27.3604 112.905 27.834 112.134 28.2344C111.372 28.6445 110.435 28.957 109.321 29.1719C108.335 29.3672 107.202 29.4844 105.923 29.5234C104.653 29.5625 103.179 29.582 101.499 29.582H91.8896V29.0254H101.499ZM103.55 17.8193C104.751 17.8193 105.742 17.7607 106.523 17.6436C107.314 17.5264 107.944 17.3457 108.413 17.1016C108.882 16.8477 109.209 16.5352 109.395 16.1641C109.59 15.7832 109.688 15.3291 109.688 14.8018C109.688 14.2744 109.521 13.8008 109.189 13.3809C108.857 12.9609 108.325 12.6387 107.593 12.4141C107.095 12.2676 106.519 12.1797 105.864 12.1504C105.21 12.1211 104.438 12.1064 103.55 12.1064H98.1152V17.8193H103.55ZM99.1699 13.1318H103.55C104.292 13.1318 104.932 13.1514 105.469 13.1904C106.006 13.2197 106.465 13.2783 106.846 13.3662C107.227 13.4541 107.549 13.5713 107.812 13.7178C108.076 13.8545 108.311 14.0303 108.516 14.2451C108.32 14.1572 108.086 14.0791 107.812 14.0107C107.549 13.9424 107.222 13.8838 106.831 13.835C106.44 13.7861 105.977 13.752 105.439 13.7324C104.912 13.7031 104.282 13.6885 103.55 13.6885H99.7559V16.9404H99.1699V13.1318ZM91.6113 13.1318H94.1602V13.7178H91.6113V13.1318ZM103.828 25.6562C104.834 25.6562 105.698 25.6318 106.421 25.583C107.144 25.5244 107.769 25.3975 108.296 25.2021C108.628 25.0752 108.901 24.9238 109.116 24.748C109.341 24.5723 109.517 24.3818 109.644 24.1768C109.771 23.9619 109.858 23.7324 109.907 23.4883C109.956 23.2441 109.98 22.9902 109.98 22.7266C109.98 22.082 109.78 21.5254 109.38 21.0566C108.989 20.5781 108.379 20.2168 107.549 19.9727C107.041 19.8262 106.46 19.7383 105.806 19.709C105.151 19.6699 104.409 19.6504 103.579 19.6504H98.1152V25.6562H103.828ZM99.1699 20.6758H103.55C104.292 20.6758 104.946 20.7002 105.513 20.749C106.079 20.7979 106.567 20.876 106.978 20.9834C107.397 21.0811 107.754 21.208 108.047 21.3643C108.34 21.5107 108.589 21.6914 108.794 21.9062C108.54 21.7891 108.267 21.6914 107.974 21.6133C107.69 21.5254 107.349 21.4521 106.948 21.3936C106.548 21.335 106.074 21.2959 105.527 21.2764C104.98 21.2471 104.321 21.2324 103.55 21.2324H99.7559V24.7773H99.1699V20.6758ZM119.443 25.6562H123.398V12.1064H119.443V9.7627H141.226V15.4756H137.93V12.1064H126.841V17.8779H134.194V19.709H126.841V25.6562H137.93V22.2871H141.226V28H119.443V25.6562ZM138.809 16.501H142.28V10.4951H142.866V17.0576H138.809V16.501ZM127.896 13.1318H137.314V13.6885H128.481V16.999H127.896V13.1318ZM120.322 13.1318H122.783V13.6885H120.322V13.1318ZM127.896 20.7344H135.234V18.6104H135.82V21.291H128.481V24.7773H127.896V20.7344ZM142.28 29.0254V23.1074H142.866V29.582H120.322V29.0254H142.28ZM147.964 25.6562H151.787V12.1064H147.744V9.7627H159.741C160.864 9.7627 161.875 9.78223 162.773 9.82129C163.682 9.86035 164.502 9.94824 165.234 10.085C166.094 10.251 166.821 10.4805 167.417 10.7734C168.022 11.0664 168.516 11.4229 168.896 11.8428C169.277 12.2529 169.551 12.7217 169.717 13.249C169.893 13.7666 169.98 14.333 169.98 14.9482C169.98 16.0713 169.629 17.0479 168.926 17.8779C168.223 18.708 167.163 19.3428 165.747 19.7822C165.571 19.8408 165.386 19.8945 165.19 19.9434C165.005 19.9824 164.814 20.0264 164.619 20.0752C165.137 20.3486 165.654 20.6953 166.172 21.1152C166.689 21.5352 167.168 21.9941 167.607 22.4922C168.047 22.9902 168.428 23.5127 168.75 24.0596C169.082 24.5967 169.316 25.1289 169.453 25.6562H172.412V28H162.07V25.6562H165.557C165.391 25.1289 165.132 24.5869 164.78 24.0303C164.429 23.4736 164.004 22.9512 163.506 22.4629C163.008 21.9746 162.441 21.5498 161.807 21.1885C161.182 20.8271 160.513 20.583 159.8 20.4561H155.083V25.6562H158.657V28H147.964V25.6562ZM166.86 20.3389C167.515 20.1436 168.101 19.8701 168.618 19.5186C169.136 19.167 169.57 18.7568 169.922 18.2881C170.283 17.8193 170.557 17.3018 170.742 16.7354C170.938 16.1689 171.035 15.5781 171.035 14.9629C171.035 14.5332 170.991 14.1182 170.903 13.7178C170.815 13.3174 170.664 12.9365 170.449 12.5752C170.234 12.2041 169.946 11.8477 169.585 11.5059C169.224 11.1641 168.774 10.832 168.237 10.5098C168.843 10.7344 169.36 11.0078 169.79 11.3301C170.229 11.6426 170.586 11.9941 170.859 12.3848C171.143 12.7754 171.348 13.1904 171.475 13.6299C171.611 14.0596 171.68 14.5039 171.68 14.9629C171.68 15.5293 171.602 16.0811 171.445 16.6182C171.299 17.1553 171.069 17.668 170.757 18.1562C170.454 18.6348 170.063 19.0742 169.585 19.4746C169.106 19.875 168.545 20.2168 167.9 20.5C168.193 20.7344 168.481 21.0273 168.765 21.3789C169.058 21.7207 169.331 22.0918 169.585 22.4922C169.839 22.8828 170.068 23.2783 170.273 23.6787C170.479 24.0693 170.64 24.4307 170.757 24.7627H170.068C169.922 24.3818 169.736 23.9814 169.512 23.5615C169.297 23.1318 169.048 22.7168 168.765 22.3164C168.491 21.916 168.193 21.5449 167.871 21.2031C167.549 20.8516 167.212 20.5635 166.86 20.3389ZM160.371 18.1123C161.543 18.1123 162.515 18.0488 163.286 17.9219C164.058 17.7852 164.673 17.5898 165.132 17.3359C165.601 17.0723 165.928 16.75 166.113 16.3691C166.309 15.9883 166.406 15.5537 166.406 15.0654C166.406 14.46 166.191 13.918 165.762 13.4395C165.332 12.9512 164.648 12.5898 163.711 12.3555C163.271 12.248 162.773 12.1797 162.217 12.1504C161.66 12.1211 161.045 12.1064 160.371 12.1064H155.083V18.1123H160.371ZM156.138 13.1318H160.371C161.172 13.1318 161.841 13.1514 162.378 13.1904C162.915 13.2197 163.369 13.2783 163.74 13.3662C164.111 13.4541 164.419 13.5713 164.663 13.7178C164.907 13.8545 165.132 14.0303 165.337 14.2451C165.142 14.1572 164.907 14.0791 164.634 14.0107C164.37 13.9424 164.043 13.8838 163.652 13.835C163.262 13.7861 162.798 13.752 162.261 13.7324C161.733 13.7031 161.104 13.6885 160.371 13.6885H156.724V17.2334H156.138V13.1318ZM148.535 13.1318H150.864V13.6885H148.535V13.1318ZM156.138 21.4814H157.91C158.848 21.4814 159.678 21.5596 160.4 21.7158C161.133 21.8623 161.665 22.1211 161.997 22.4922C161.724 22.4141 161.45 22.3457 161.177 22.2871C160.913 22.2285 160.61 22.1846 160.269 22.1553C159.937 22.1162 159.546 22.0869 159.097 22.0674C158.657 22.0479 158.125 22.0381 157.5 22.0381H156.724V24.7773H156.138V21.4814ZM173.467 29.0254V26.4766H174.053V29.582H162.7V29.0254H173.467ZM159.741 29.0254V26.4766H160.327V29.582H148.901V29.0254H159.741ZM177.451 25.627L193.887 11.7988H181.143V15.2998H177.847V9.7627H198.003V12.3701L181.934 25.9199H195.19V22.5508H198.486V28H177.451V25.627ZM199.204 12.9414V10.6416H199.79V13.1904L185.845 25.041H184.937L199.204 12.9414ZM178.726 16.3252H182.197V12.8242H191.47L190.811 13.3809H182.783V16.8818H178.726V16.3252ZM199.541 29.0254V23.3711H200.127V29.582H178.33V29.0254H199.541Z" fill="url(#paint0_linear_1672_30783)"/>
<defs>
<linearGradient id="paint0_linear_1672_30783" x1="127.444" y1="0" x2="127.444" y2="54" gradientUnits="userSpaceOnUse">
<stop stop-color="white"/>
<stop offset="1" stop-color="white"/>
</linearGradient>
</defs>
</svg>
